# This file uses centimeters as units for non-parametric coordinates.

mtllib GolfClub.mtl
g default
v -0.045591 3.718828 -5.099233
v -0.045591 4.133208 -5.099233
v -0.006754 4.133208 -5.130205
v -0.006754 3.718828 -5.130205
v -0.045591 3.718828 -5.049559
v -0.045591 4.133208 -5.049559
v 0.041675 4.133208 -5.119151
v 0.041675 3.718828 -5.119151
v -0.006754 3.718828 -5.018587
v -0.006754 4.133208 -5.018587
v 0.063228 4.133208 -5.074396
v 0.063228 3.718828 -5.074396
v 0.041675 3.718828 -5.029641
v 0.041675 4.133208 -5.029641
v -0.031461 9.163124 -5.092783
v -0.002710 9.163124 -5.115712
v -0.031461 9.163124 -5.056009
v 0.033142 9.163124 -5.107529
v -0.002710 9.163124 -5.033080
v 0.049098 9.163124 -5.074396
v 0.033142 9.163124 -5.041263
v -0.026288 15.341140 -5.200213
v -0.113844 15.341140 -5.130390
v 0.002428 15.341140 -5.074396
v -0.113844 15.341140 -5.018402
v 0.082891 15.341140 -5.175293
v -0.026288 15.341140 -4.948579
v 0.131481 15.341140 -5.074396
v 0.082891 15.341140 -4.973499
v -0.031461 11.627278 -5.092783
v -0.002710 11.627278 -5.115712
v -0.031461 11.627278 -5.056009
v 0.033142 11.627278 -5.107529
v -0.002710 11.627278 -5.033080
v 0.049098 11.627278 -5.074396
v 0.033142 11.627278 -5.041263
v -0.113844 11.943933 -5.130390
v -0.026288 11.943933 -5.200213
v -0.113844 11.943933 -5.018402
v 0.082891 11.943933 -5.175293
v -0.026288 11.943933 -4.948579
v 0.131481 11.943933 -5.074396
v 0.082891 11.943933 -4.973499
v -0.058399 3.363664 -5.236699
v 0.066138 3.357780 -5.236699
v -0.058399 3.691004 -5.084529
v 0.066138 3.691004 -5.084529
v -0.058399 3.719381 -5.995543
v 0.066138 3.719381 -5.995543
v -0.058399 3.302350 -6.033938
v 0.066138 3.302350 -6.033938
v -0.058399 3.722880 -5.889853
v -0.058399 3.253083 -5.889853
v 0.066138 3.253083 -5.889853
v 0.066138 3.722880 -5.889853
v -0.058399 3.723685 -5.277234
v -0.058399 3.312611 -5.347384
v 0.066138 3.312611 -5.347384
v 0.066138 3.723685 -5.277234
v -0.058399 3.737155 -5.523023
v -0.058399 3.253083 -5.523023
v 0.066138 3.253083 -5.523023
v 0.066138 3.737155 -5.523023
v -0.058399 3.628120 -6.107988
v -0.067244 3.599458 -5.931012
v -0.067244 3.599458 -5.512077
v -0.067244 3.651174 -5.231375
v -0.058399 3.633998 -5.072467
v 0.066138 3.633998 -5.072467
v 0.074983 3.651174 -5.231375
v 0.074983 3.599458 -5.512077
v 0.074983 3.599458 -5.931012
v 0.066138 3.628120 -6.107988
v -0.058399 3.406222 -6.111760
v -0.067244 3.337331 -5.931012
v -0.067244 3.337331 -5.512077
v -0.067244 3.405313 -5.311489
v -0.058399 3.452954 -5.174158
v 0.066138 3.461652 -5.124834
v 0.074983 3.405313 -5.311489
v 0.074983 3.337331 -5.512077
v 0.074983 3.337331 -5.931012
v 0.066138 3.406222 -6.111760
v -0.058399 3.566886 -5.075493
v -0.067244 3.523750 -5.265511
v -0.067244 3.485486 -5.512077
v -0.067244 3.485486 -5.931012
v -0.058399 3.522277 -6.127705
v 0.066138 3.522277 -6.127705
v 0.074983 3.485486 -5.931012
v 0.074983 3.485486 -5.512077
v 0.074983 3.523750 -5.265511
v 0.066138 3.547166 -5.075493
v 0.039710 3.751236 -6.051714
v 0.039710 3.647012 -6.180130
v 0.039710 3.526135 -6.202649
v 0.039710 3.393595 -6.184440
v 0.039710 3.274969 -6.095564
v 0.039710 3.218704 -5.931012
v 0.039710 3.218704 -5.512077
v 0.039710 3.286687 -5.311489
v 0.039710 3.339939 -5.185084
v 0.039710 3.454435 -5.071299
v 0.039710 3.560144 -5.000978
v 0.039710 3.653725 -4.997524
v 0.039710 3.718828 -5.011298
v 0.039710 3.756151 -5.231375
v 0.039710 3.771534 -5.512077
v 0.039710 3.755231 -5.931012
v 0.000429 3.751236 -6.051714
v 0.000429 3.647012 -6.180130
v 0.000429 3.526135 -6.202649
v 0.000429 3.393595 -6.184440
v 0.000429 3.274969 -6.095564
v 0.000429 3.218704 -5.931012
v 0.000429 3.218704 -5.512077
v 0.000429 3.286687 -5.311489
v 0.000429 3.341794 -5.185084
v 0.000429 3.451691 -5.086857
v 0.000429 3.566364 -5.000978
v 0.000429 3.653725 -4.997524
v 0.000429 3.718828 -5.011298
v 0.000428 3.756151 -5.231375
v 0.000429 3.771534 -5.512077
v 0.000429 3.755231 -5.931012
vt 1.534789 -0.964877
vt 1.534789 -0.931728
vt 1.530433 -0.931728
vt 1.530433 -0.964877
vt 1.539075 -0.964877
vt 1.539075 -0.931728
vt 1.557344 -0.931728
vt 1.543431 -0.964877
vt 1.543431 -0.931728
vt 1.552652 -0.931728
vt 1.552652 -0.964877
vt 1.547961 -0.964877
vt 1.547961 -0.931728
vt 1.534789 -0.529348
vt 1.530433 -0.529348
vt 1.618474 -0.269177
vt 1.686506 -0.261994
vt 1.771339 -0.264557
vt 1.809094 -0.274938
vt 1.771340 -0.285319
vt 1.686506 -0.287882
vt 1.618474 -0.280699
vt 1.539075 -0.529348
vt 1.557344 -0.529348
vt 1.543431 -0.529348
vt 1.552652 -0.529348
vt 1.547961 -0.529348
vt 1.530433 -0.035123
vt 1.534789 -0.035123
vt 1.536932 -0.035123
vt 1.539075 -0.035123
vt 1.543431 -0.035123
vt 1.552652 -0.035123
vt 1.547961 -0.035123
vt 1.534789 -0.332222
vt 1.530433 -0.332222
vt 1.539075 -0.332222
vt 1.557344 -0.332222
vt 1.543431 -0.332222
vt 1.552652 -0.332222
vt 1.547961 -0.332222
vt 1.534789 -0.306891
vt 1.530433 -0.306891
vt 1.539075 -0.306891
vt 1.557344 -0.306891
vt 1.543431 -0.306891
vt 1.552652 -0.306891
vt 1.547961 -0.306891
vt 1.179365 -0.554029
vt 1.179365 -0.582012
vt 1.179365 -0.605591
vt 1.179365 -0.624076
vt 1.179365 -0.640739
vt 1.179365 -0.671410
vt 1.179365 -0.695230
vt 1.179365 -0.353398
vt 1.179365 -0.714303
vt 1.179365 -0.371884
vt 1.179365 -0.395462
vt 1.179365 -0.423445
vt 1.179365 -0.443624
vt 1.136435 -0.714303
vt 1.226661 -0.714303
vt 1.226661 -0.624076
vt 1.136435 -0.624076
vt 1.226661 -0.533850
vt 1.136435 -0.533850
vt 1.226661 -0.443624
vt 1.136435 -0.443624
vt 1.226661 -0.353398
vt 1.136435 -0.353398
vt 1.316888 -0.714303
vt 1.316888 -0.624076
vt 1.046209 -0.714303
vt 1.046209 -0.624076
vt 1.066388 -0.624076
vt 1.136435 -0.554029
vt 1.066388 -0.714303
vt 1.136435 -0.423445
vt 1.226661 -0.423445
vt 1.296709 -0.714303
vt 1.226661 -0.554029
vt 1.296709 -0.624076
vt 1.117949 -0.624076
vt 1.136435 -0.605591
vt 1.117949 -0.714303
vt 1.136435 -0.371883
vt 1.226661 -0.371883
vt 1.245147 -0.714303
vt 1.226661 -0.605591
vt 1.245147 -0.624076
vt 1.094371 -0.624076
vt 1.136435 -0.582012
vt 1.094371 -0.714303
vt 1.136435 -0.395462
vt 1.226661 -0.395462
vt 1.268726 -0.714303
vt 1.226661 -0.582012
vt 1.268726 -0.624076
vt 1.046209 -0.640739
vt 1.136435 -0.517187
vt 1.066388 -0.640739
vt 1.094371 -0.640739
vt 1.117949 -0.640739
vt 1.136435 -0.640739
vt 1.226661 -0.640739
vt 1.245147 -0.640739
vt 1.268726 -0.640739
vt 1.296709 -0.640739
vt 1.226661 -0.517187
vt 1.316888 -0.640739
vt 1.046209 -0.695230
vt 1.136435 -0.462697
vt 1.066388 -0.695230
vt 1.094371 -0.695230
vt 1.117949 -0.695230
vt 1.136435 -0.695230
vt 1.226661 -0.695230
vt 1.245147 -0.695230
vt 1.268726 -0.695230
vt 1.296709 -0.695230
vt 1.226661 -0.462697
vt 1.316888 -0.695230
vt 1.136435 -0.671410
vt 1.117949 -0.671410
vt 1.094371 -0.671410
vt 1.066388 -0.671410
vt 1.046209 -0.671410
vt 1.136435 -0.486517
vt 1.226661 -0.486517
vt 1.316888 -0.671410
vt 1.296709 -0.671410
vt 1.268726 -0.671410
vt 1.245147 -0.671410
vt 1.226661 -0.671410
vt 1.204285 -0.533850
vt 1.204285 -0.517187
vt 1.204285 -0.486517
vt 1.204285 -0.462697
vt 1.204285 -0.443624
vt 1.204285 -0.423445
vt 1.204285 -0.395462
vt 1.204285 -0.371884
vt 1.204285 -0.714303
vt 1.204285 -0.353398
vt 1.204285 -0.695230
vt 1.204285 -0.671410
vt 1.204285 -0.640739
vt 1.204285 -0.624076
vt 1.204285 -0.605591
vt 1.204285 -0.582012
vt 1.204285 -0.554029
vt 1.179365 -0.533850
vt 1.179365 -0.517187
vt 1.179365 -0.486517
vt 1.179365 -0.462697
vt 1.557344 -0.964877
vt 1.561874 -0.964877
vt 1.561874 -0.931728
vt 1.561874 -0.035123
vt 1.568373 -0.035123
vt 1.584093 -0.035123
vt 1.561874 -0.529348
vt 1.561874 -0.332222
vt 1.561874 -0.306891
vt 1.557344 -0.035123
vn -0.623497 0.000000 -0.781826
vn -0.623491 0.002516 -0.781827
vn -0.623491 0.002516 -0.781826
vn -0.623497 0.000000 -0.781826
vn -1.000000 0.000000 0.000000
vn -0.999997 0.002566 0.000000
vn -0.999997 0.002566 0.000000
vn -1.000000 0.000000 0.000000
vn 0.222532 0.000000 -0.974925
vn 0.222525 0.002403 -0.974924
vn 0.222525 0.002403 -0.974924
vn 0.222532 0.000000 -0.974925
vn -0.623492 0.000000 0.781829
vn -0.623491 0.002516 0.781827
vn -0.623491 0.002516 0.781827
vn -0.623492 0.000000 0.781829
vn 0.900967 0.000000 -0.433887
vn 0.900966 0.002312 -0.433884
vn 0.900966 0.002312 -0.433884
vn 0.900967 0.000000 -0.433887
vn 0.222522 0.000000 0.974928
vn 0.222520 0.002403 0.974925
vn 0.222520 0.002403 0.974925
vn 0.222522 0.000000 0.974928
vn 0.900970 0.000000 0.433882
vn 0.900967 0.002312 0.433881
vn 0.900967 0.002312 0.433881
vn 0.900970 0.000000 0.433882
vn 0.000000 -1.000000 -0.000000
vn 0.000000 -1.000000 -0.000000
vn 0.000000 -1.000000 -0.000000
vn 0.000000 -1.000000 -0.000000
vn 0.000000 -1.000000 -0.000000
vn 0.000000 -1.000000 -0.000000
vn 0.000000 -1.000000 -0.000000
vn -0.623491 0.001944 -0.781828
vn -0.623491 0.001944 -0.781828
vn -0.999998 0.001983 -0.000000
vn -0.999998 0.001983 -0.000000
vn 0.222523 0.001857 -0.974926
vn 0.222523 0.001857 -0.974926
vn -0.623489 0.001944 0.781829
vn -0.623489 0.001944 0.781829
vn 0.900968 0.001787 -0.433883
vn 0.900968 0.001787 -0.433883
vn 0.222519 0.001857 0.974927
vn 0.222519 0.001857 0.974927
vn 0.900968 0.001787 0.433882
vn 0.900968 0.001787 0.433882
vn 0.000000 1.000000 -0.000006
vn 0.000000 1.000000 0.000000
vn 0.000000 1.000000 -0.000002
vn 0.000000 1.000000 0.000000
vn 0.000000 1.000000 -0.000006
vn 0.000000 1.000000 -0.000006
vn 0.000000 1.000000 0.000006
vn 0.000000 1.000000 -0.000000
vn -0.623490 0.000000 -0.781831
vn -0.623490 0.000000 -0.781831
vn -1.000000 -0.000000 -0.000000
vn -1.000000 -0.000000 -0.000000
vn 0.222517 -0.000000 -0.974929
vn 0.222517 -0.000000 -0.974929
vn -0.623486 -0.000000 0.781834
vn -0.623486 -0.000000 0.781834
vn 0.900971 0.000000 -0.433880
vn 0.900971 0.000000 -0.433880
vn 0.222517 0.000000 0.974929
vn 0.222517 0.000000 0.974929
vn 0.900969 0.000000 0.433883
vn 0.900969 0.000000 0.433883
vn -0.604147 -0.247147 -0.757578
vn -0.604147 -0.247147 -0.757578
vn -0.604147 -0.247147 -0.757578
vn -0.604147 -0.247147 -0.757578
vn -0.967784 -0.251782 -0.000003
vn -0.967784 -0.251782 -0.000003
vn -0.967784 -0.251782 -0.000003
vn -0.967784 -0.251782 -0.000003
vn 0.216197 -0.236674 -0.947230
vn 0.216197 -0.236674 -0.947230
vn 0.216197 -0.236674 -0.947230
vn 0.216197 -0.236674 -0.947230
vn -0.604149 -0.247148 0.757577
vn -0.604149 -0.247148 0.757577
vn -0.604149 -0.247148 0.757577
vn -0.604149 -0.247148 0.757577
vn 0.877194 -0.228214 -0.422431
vn 0.877194 -0.228214 -0.422431
vn 0.877194 -0.228214 -0.422431
vn 0.877194 -0.228214 -0.422431
vn 0.216200 -0.236675 0.947229
vn 0.216200 -0.236675 0.947229
vn 0.216200 -0.236675 0.947229
vn 0.216200 -0.236675 0.947229
vn 0.877194 -0.228214 0.422431
vn 0.877194 -0.228214 0.422431
vn 0.877194 -0.228214 0.422431
vn 0.877194 -0.228214 0.422431
vn -0.623489 0.000000 -0.781832
vn -0.623489 0.000000 -0.781832
vn -0.623489 0.000000 -0.781832
vn -0.623489 0.000000 -0.781832
vn -1.000000 0.000000 -0.000000
vn -1.000000 0.000000 -0.000000
vn -1.000000 0.000000 -0.000000
vn -1.000000 0.000000 -0.000000
vn 0.222518 0.000000 -0.974929
vn 0.222518 0.000000 -0.974929
vn 0.222518 0.000000 -0.974929
vn 0.222518 0.000000 -0.974929
vn -0.623492 0.000000 0.781830
vn -0.623492 0.000000 0.781830
vn -0.623492 0.000000 0.781830
vn -0.623492 0.000000 0.781830
vn 0.900969 0.000000 -0.433883
vn 0.900969 0.000000 -0.433883
vn 0.900969 0.000000 -0.433883
vn 0.900969 0.000000 -0.433883
vn 0.222522 0.000000 0.974928
vn 0.222522 0.000000 0.974928
vn 0.222522 0.000000 0.974928
vn 0.222522 0.000000 0.974928
vn 0.900969 0.000000 0.433883
vn 0.900969 0.000000 0.433883
vn 0.900969 0.000000 0.433883
vn 0.900969 0.000000 0.433883
vn -0.791214 0.036425 0.610453
vn -0.583637 0.060611 0.809750
vn -0.596001 0.166219 0.785592
vn -0.796161 0.125254 0.591979
vn -0.559164 0.817386 0.138622
vn -0.272567 0.948592 0.160873
vn -0.344723 0.932339 0.109133
vn -0.525270 0.847742 0.073651
vn -0.714814 0.542985 -0.440692
vn -0.536784 0.655107 -0.531692
vn -0.544210 0.444633 -0.711432
vn -0.762749 0.381740 -0.522005
vn -0.534447 -0.792455 0.293905
vn -0.348007 -0.875053 0.336412
vn -0.326179 -0.865872 0.379305
vn -0.559304 -0.756581 0.338768
vn 0.998718 0.019665 0.046641
vn 0.999172 0.036187 0.018595
vn 0.996586 0.082554 -0.000495
vn 0.995730 0.084563 0.037038
vn -0.999150 0.037166 0.017858
vn -0.998682 0.021299 0.046687
vn -0.995730 0.084562 0.037038
vn -0.996587 0.082554 -0.000495
vn -0.998970 0.020307 -0.040572
vn -0.999465 0.030337 -0.012242
vn -0.997779 0.066396 -0.005321
vn -0.997883 0.059653 -0.025914
vn -0.614708 -0.746332 -0.255192
vn -0.342882 -0.888854 -0.303924
vn -0.341651 -0.932864 -0.114189
vn -0.531330 -0.845493 -0.053195
vn 0.997779 0.066396 -0.005321
vn 0.999465 0.030337 -0.012242
vn 0.998970 0.020307 -0.040572
vn 0.997883 0.059653 -0.025914
vn -0.499278 0.865811 -0.033066
vn -0.293302 0.955360 -0.035507
vn -0.245794 0.968792 -0.032069
vn -0.497027 0.867260 -0.028709
vn -0.999394 0.034775 -0.001385
vn -0.997363 0.072522 -0.002795
vn -0.514756 -0.852813 0.087953
vn -0.322801 -0.940372 0.107240
vn 0.999394 0.034775 -0.001385
vn 0.997363 0.072522 -0.002795
vn -0.319097 0.947721 0.001267
vn -0.503883 0.863758 -0.004849
vn -0.998736 -0.012192 -0.048758
vn -0.999338 -0.032805 -0.015715
vn -0.999903 -0.000012 -0.013903
vn -0.998891 0.000771 -0.047070
vn -0.999201 -0.039597 0.005394
vn -1.000000 0.000000 0.000000
vn -0.999127 -0.033501 0.024942
vn -0.999700 -0.010862 0.021953
vn -0.996782 -0.045970 0.065669
vn -0.998350 -0.017357 0.054742
vn -0.726015 -0.431925 0.535110
vn -0.567267 -0.523888 0.635413
vn -0.581111 -0.304345 0.754774
vn -0.762309 -0.313654 0.566132
vn 0.998104 -0.031413 0.052938
vn 0.999139 -0.034147 0.023542
vn 0.999775 -0.007125 0.019977
vn 0.998591 -0.013963 0.051203
vn 1.000000 -0.000000 0.000000
vn 0.999201 -0.039597 0.005394
vn 0.999903 -0.000012 -0.013903
vn 0.999338 -0.032805 -0.015715
vn 0.998891 0.000771 -0.047070
vn 0.998736 -0.012192 -0.048758
vn -0.786806 0.009225 -0.617132
vn -0.583485 0.014914 -0.811987
vn -0.560122 -0.311598 -0.767574
vn -0.771682 -0.263605 -0.578809
vn -0.994901 -0.083007 -0.057284
vn -0.994778 -0.101821 -0.006989
vn -0.994382 -0.105508 0.008563
vn -0.993540 -0.105257 0.042415
vn -0.993859 -0.085976 0.069656
vn -0.721588 -0.434825 0.538737
vn -0.552787 -0.544269 0.631029
vn 0.994107 -0.090070 0.060319
vn 0.993575 -0.105188 0.041775
vn 0.994382 -0.105508 0.008563
vn 0.994778 -0.101821 -0.006989
vn 0.994901 -0.083007 -0.057284
vn -0.562403 -0.495784 -0.661741
vn -0.745183 -0.399846 -0.533690
vn 0.703260 0.552005 -0.448013
vn 0.915479 0.312418 -0.253562
vn 0.934148 0.212827 -0.286481
vn 0.664421 0.400273 -0.631131
vn 0.717524 0.012591 -0.696420
vn 0.943145 0.004841 -0.332347
vn 0.689230 -0.274932 -0.670354
vn 0.937643 -0.145518 -0.315675
vn 0.719822 -0.416215 -0.555537
vn 0.927824 -0.223661 -0.298528
vn 0.443582 -0.889850 -0.106784
vn 0.394654 -0.869411 -0.297276
vn 0.866360 -0.472558 -0.161581
vn 0.810022 -0.585580 -0.031001
vn 0.434929 -0.894653 0.102141
vn 0.800477 -0.596398 0.059546
vn 0.447636 -0.836943 0.314879
vn 0.808587 -0.553971 0.198250
vn 0.314607 -0.873520 0.371463
vn 0.813628 -0.536959 0.222901
vn 0.506635 -0.536346 0.675021
vn 0.591602 -0.565837 0.574313
vn 0.865026 -0.360545 0.348909
vn 0.875645 -0.322884 0.359154
vn 0.606092 -0.275209 0.746266
vn 0.919169 -0.148861 0.364650
vn 0.731400 0.047967 0.680259
vn 0.944278 0.017354 0.328691
vn 0.729284 0.141632 0.669392
vn 0.946358 0.066887 0.316121
vn 0.468916 0.877366 0.101718
vn 0.284918 0.945058 0.160274
vn 0.832268 0.546569 0.092693
vn 0.806480 0.589347 0.047545
vn 0.437964 0.898992 0.001271
vn 0.792065 0.610418 -0.004801
vn 0.376541 0.925760 -0.034438
vn 0.788709 0.614315 -0.023576
vn 0.258353 0.965522 -0.031961
vn 0.786846 0.616812 -0.020418
s 1
g GolfClub
usemtl initialShadingGroup
f 1/1/1 2/2/2 3/3/3 4/4/4
s 2
f 5/5/5 6/6/6 2/2/7 1/1/8
s 3
f 4/158/9 3/159/10 7/7/11 8/157/12
s 4
f 9/8/13 10/9/14 6/6/15 5/5/16
s 5
f 8/157/17 7/7/18 11/10/19 12/11/20
s 6
f 13/12/21 14/13/22 10/9/23 9/8/24
s 7
f 12/11/25 11/10/26 14/13/27 13/12/28
s off
f 1/16/29 4/17/30 8/18/31 12/19/32 13/20/33 9/21/34 5/22/35
s 1
f 3/3/3 2/2/2 15/14/36 16/15/37
s 2
f 2/2/7 6/6/6 17/23/38 15/14/39
s 3
f 7/7/11 3/159/10 16/163/40 18/24/41
s 4
f 6/6/15 10/9/14 19/25/42 17/23/43
s 5
f 11/10/19 7/7/18 18/24/44 20/26/45
s 6
f 10/9/23 14/13/22 21/27/46 19/25/47
s 7
f 14/13/27 11/10/26 20/26/48 21/27/49
s 8
f 22/28/50 23/29/51 24/30/52
f 23/29/51 25/31/53 24/30/52
f 26/166/54 22/160/50 24/161/52
f 25/31/53 27/32/55 24/30/52
f 28/162/56 26/166/54 24/161/52
f 27/32/55 29/34/57 24/30/52
f 29/34/57 28/33/56 24/30/52
s 1
f 16/15/37 15/14/36 30/35/58 31/36/59
s 2
f 15/14/39 17/23/38 32/37/60 30/35/61
s 3
f 18/24/41 16/163/40 31/164/62 33/38/63
s 4
f 17/23/43 19/25/42 34/39/64 32/37/65
s 5
f 20/26/45 18/24/44 33/38/66 35/40/67
s 6
f 19/25/47 21/27/46 36/41/68 34/39/69
s 7
f 21/27/49 20/26/48 35/40/70 36/41/71
s off
f 31/36/72 30/35/73 37/42/74 38/43/75
f 30/35/76 32/37/77 39/44/78 37/42/79
f 33/38/80 31/164/81 38/165/82 40/45/83
f 32/37/84 34/39/85 41/46/86 39/44/87
f 35/40/88 33/38/89 40/45/90 42/47/91
f 34/39/92 36/41/93 43/48/94 41/46/95
f 36/41/96 35/40/97 42/47/98 43/48/99
f 38/43/100 37/42/101 23/29/102 22/28/103
f 37/42/104 39/44/105 25/31/106 23/29/107
f 40/45/108 38/165/109 22/160/110 26/166/111
f 39/44/112 41/46/113 27/32/114 25/31/115
f 42/47/116 40/45/117 26/166/118 28/33/119
f 41/46/120 43/48/121 29/34/122 27/32/123
f 43/48/124 42/47/125 28/33/126 29/34/127
s 9
f 68/105/128 121/53/129 122/52/130 46/65/131
s 10
f 46/65/132 122/52/133 123/51/134 56/85/135
s 11
f 48/67/136 110/153/137 111/154/138 64/101/139
s 12
f 57/87/140 117/58/141 118/56/142 44/71/143
s 13
f 69/106/144 70/107/145 59/91/146 47/64/147
s 14
f 67/104/148 68/105/149 46/65/150 56/84/151
f 64/100/152 65/102/153 52/76/154 48/75/155
s 12
f 50/69/156 114/61/157 115/60/158 53/79/159
s 13
f 55/83/160 72/109/161 73/111/162 49/73/163
s 10
f 52/77/164 125/49/165 110/153/166 48/67/167
s 14
f 66/103/168 67/104/148 56/84/151 60/92/169
s 12
f 61/95/170 116/59/171 117/58/141 57/87/140
s 13
f 59/91/146 70/107/145 71/108/172 63/99/173
s 10
f 56/85/135 123/51/134 124/50/174 60/93/175
s 14
f 65/102/153 66/103/168 60/92/169 52/76/154
s 12
f 53/79/159 115/60/158 116/59/171 61/95/170
s 13
f 63/99/173 71/108/172 72/109/161 55/83/160
s 10
f 60/93/175 124/50/174 125/49/165 52/77/164
s 14
f 74/112/176 75/114/177 87/127/178 88/128/179
f 75/114/177 76/115/180 86/126/181 87/127/178
f 76/115/180 77/116/182 85/125/183 86/126/181
f 77/116/182 78/117/184 84/124/185 85/125/183
s 9
f 78/117/186 119/55/187 120/54/188 84/124/189
s 13
f 79/118/190 80/119/191 92/134/192 93/135/193
f 91/133/194 92/134/192 80/119/191 81/120/195
f 90/132/196 91/133/194 81/120/195 82/121/197
f 89/131/198 90/132/196 82/121/197 83/123/199
s 11
f 88/129/200 112/155/201 113/156/202 74/113/203
s 14
f 50/74/204 53/78/205 75/114/177 74/112/176
f 53/78/205 61/94/206 76/115/180 75/114/177
f 61/94/206 57/86/207 77/116/182 76/115/180
f 57/86/207 44/62/208 78/117/184 77/116/182
s 9
f 44/62/209 118/57/210 119/55/187 78/117/186
s 13
f 45/63/211 58/89/212 80/119/191 79/118/190
f 81/120/195 80/119/191 58/89/212 62/97/213
f 82/121/197 81/120/195 62/97/213 54/81/214
f 83/123/199 82/121/197 54/81/214 51/72/215
s 11
f 74/113/203 113/156/202 114/61/216 50/69/217
s 14
f 85/125/183 84/124/185 68/105/149 67/104/148
f 86/126/181 85/125/183 67/104/148 66/103/168
f 87/127/178 86/126/181 66/103/168 65/102/153
f 88/128/179 87/127/178 65/102/153 64/100/152
s 11
f 64/101/139 111/154/138 112/155/201 88/129/200
s 13
f 73/111/162 72/109/161 90/132/196 89/131/198
f 72/109/161 71/108/172 91/133/194 90/132/196
f 71/108/172 70/107/145 92/134/192 91/133/194
f 93/135/193 92/134/192 70/107/145 69/106/144
s 9
f 84/124/189 120/54/188 121/53/129 68/105/128
s 11
f 94/136/218 49/66/219 73/110/220 95/137/221
f 96/138/222 95/137/221 73/110/220 89/130/223
f 97/139/224 96/138/222 89/130/223 83/122/225
f 98/140/226 97/139/224 83/122/225 51/68/227
s 12
f 99/141/228 98/140/229 51/68/230 54/80/231
f 100/142/232 99/141/228 54/80/231 62/96/233
f 101/143/234 100/142/232 62/96/233 58/88/235
f 102/145/236 101/143/234 58/88/235 45/70/237
s 9
f 103/146/238 102/144/239 45/63/240 79/118/241
f 104/147/242 103/146/238 79/118/241 93/135/243
f 105/148/244 104/147/242 93/135/243 69/106/245
f 106/149/246 105/148/244 69/106/245 47/64/247
s 10
f 107/150/248 106/149/249 47/64/250 59/90/251
f 108/151/252 107/150/248 59/90/251 63/98/253
f 109/152/254 108/151/252 63/98/253 55/82/255
f 94/136/256 109/152/254 55/82/255 49/66/257
s 11
f 110/153/137 94/136/218 95/137/221 111/154/138
f 112/155/201 111/154/138 95/137/221 96/138/222
f 113/156/202 112/155/201 96/138/222 97/139/224
f 114/61/216 113/156/202 97/139/224 98/140/226
s 12
f 115/60/158 114/61/157 98/140/229 99/141/228
f 116/59/171 115/60/158 99/141/228 100/142/232
f 117/58/141 116/59/171 100/142/232 101/143/234
f 118/56/142 117/58/141 101/143/234 102/145/236
s 9
f 119/55/187 118/57/210 102/144/239 103/146/238
f 120/54/188 119/55/187 103/146/238 104/147/242
f 121/53/129 120/54/188 104/147/242 105/148/244
f 122/52/130 121/53/129 105/148/244 106/149/246
s 10
f 123/51/134 122/52/133 106/149/249 107/150/248
f 124/50/174 123/51/134 107/150/248 108/151/252
f 125/49/165 124/50/174 108/151/252 109/152/254
f 110/153/166 125/49/165 109/152/254 94/136/256
