# This file uses centimeters as units for non-parametric coordinates.

mtllib LightBottom.mtl
g default
v 0.701883 6.714838 1.073473
v 0.701883 6.404448 0.847961
v 0.701883 6.212616 1.438359
v 0.806703 6.050627 1.320666
v 0.806703 6.150742 1.247928
v 0.814179 6.212616 1.438359
v 0.806703 6.012386 1.438359
v 0.806703 6.274491 1.247928
v 0.806703 6.050627 1.556051
v 0.806703 6.374606 1.320666
v 0.701883 5.710394 1.803245
v 0.701883 6.020784 2.028756
v 0.806703 6.150742 1.628789
v 0.806703 6.412847 1.438359
v 0.806703 6.274491 1.628789
v 0.806703 6.374606 1.556051
v 0.701883 6.714838 1.803244
v 0.701883 6.833397 1.438359
v 0.701883 5.710394 1.073473
v 0.708633 5.714063 1.076139
v 0.708633 5.596371 1.438359
v 0.701883 5.591836 1.438359
v 0.751214 6.050627 0.939806
v 0.751214 5.788522 1.130236
v 0.708633 6.022186 0.852275
v 0.751214 5.688407 1.438359
v 0.701883 6.020784 0.847961
v 0.701883 6.020784 0.847961
v 0.701883 5.710394 1.073473
v 0.785007 6.094924 1.076139
v 0.785007 5.904493 1.214495
v 0.751214 6.374606 0.939806
v 0.708633 6.403047 0.852275
v 0.785007 5.831756 1.438359
v 0.701883 6.404448 0.847961
v 0.708633 5.714063 1.800579
v 0.701883 5.710394 1.803245
v 0.785007 6.330309 1.076139
v 0.751214 5.788522 1.746481
v 0.785007 5.904493 1.662223
v 0.751214 6.636711 1.130236
v 0.708633 6.711169 1.076139
v 0.785007 6.520739 1.214495
v 0.751214 6.050627 1.936912
v 0.708633 6.022186 2.024443
v 0.785007 6.094924 1.800579
v 0.701883 6.714839 1.073473
v 0.785007 6.593477 1.438359
v 0.751214 6.736826 1.438359
v 0.785007 6.330309 1.800579
v 0.708633 6.828861 1.438359
v 0.701883 6.020784 2.028756
v 0.701883 6.404448 2.028756
v 0.785007 6.520739 1.662223
v 0.751214 6.374606 1.936912
v 0.708633 6.403047 2.024443
v 0.751214 6.636711 1.746481
v 0.708633 6.711169 1.800579
v 0.701883 6.404448 2.028756
v 0.701883 6.714838 1.803244
vt 0.492032 -0.430310
vt 0.473262 -0.456145
vt 0.522402 -0.472111
vt 0.473262 -0.456145
vt 0.473262 -0.488077
vt 0.522402 -0.420442
vt 0.492032 -0.430310
vt 0.473262 -0.488077
vt 0.492032 -0.513912
vt 0.552772 -0.430310
vt 0.492032 -0.513912
vt 0.522402 -0.523779
vt 0.571541 -0.456145
vt 0.571541 -0.456145
vt 0.552772 -0.430310
vt 0.552772 -0.513912
vt 0.552772 -0.513912
vt 0.571541 -0.488077
vt 0.571541 -0.488077
vt 0.327249 -0.897161
vt 0.333304 -0.888828
vt 0.317454 -0.883678
vt 0.336086 -0.909324
vt 0.347602 -0.893474
vt 0.333304 -0.878529
vt 0.317454 -0.900344
vt 0.317454 -0.915378
vt 0.343099 -0.918976
vt 0.358949 -0.897161
vt 0.347602 -0.873883
vt 0.327249 -0.870196
vt 0.307658 -0.897161
vt 0.298821 -0.909324
vt 0.317454 -0.927309
vt 0.347602 -0.925174
vt 0.366234 -0.899528
vt 0.358949 -0.870196
vt 0.336086 -0.858033
vt 0.317454 -0.867013
vt 0.301604 -0.888828
vt 0.287306 -0.893474
vt 0.291808 -0.918976
vt 0.317454 -0.934969
vt 0.347824 -0.925479
vt 0.347824 -0.925479
vt 0.366593 -0.899645
vt 0.366234 -0.867828
vt 0.343099 -0.848380
vt 0.317454 -0.851979
vt 0.307658 -0.870196
vt 0.301604 -0.878529
vt 0.287306 -0.873882
vt 0.275958 -0.897161
vt 0.287306 -0.925174
vt 0.317454 -0.935347
vt 0.366593 -0.899645
vt 0.366593 -0.867712
vt 0.347602 -0.842183
vt 0.317454 -0.840048
vt 0.298821 -0.858033
vt 0.275958 -0.870196
vt 0.268673 -0.899528
vt 0.287084 -0.925479
vt 0.366593 -0.867712
vt 0.347824 -0.841878
vt 0.347824 -0.841878
vt 0.317454 -0.832387
vt 0.291808 -0.848380
vt 0.268673 -0.867828
vt 0.268314 -0.899645
vt 0.268314 -0.899645
vt 0.287084 -0.925479
vt 0.317454 -0.832010
vt 0.287306 -0.842183
vt 0.268314 -0.867712
vt 0.268314 -0.867712
vt 0.287084 -0.841878
vt 0.287084 -0.841878
vn -1.000000 0.000000 0.000000
vn -1.000000 0.000000 0.000000
vn -1.000000 0.000000 0.000000
vn 0.999230 -0.023058 -0.031737
vn 0.999230 -0.023058 -0.031737
vn 0.999230 -0.023058 -0.031737
vn 0.999230 -0.037309 -0.012122
vn 0.999230 -0.037309 -0.012122
vn 0.999230 -0.037309 -0.012122
vn 0.999230 0.000000 -0.039229
vn 0.999230 0.000000 -0.039229
vn 0.999230 0.000000 -0.039229
vn 0.999230 -0.037309 0.012123
vn 0.999230 -0.037309 0.012123
vn 0.999230 -0.037309 0.012123
vn 0.999230 0.023058 -0.031737
vn 0.999230 0.023058 -0.031737
vn 0.999230 0.023058 -0.031737
vn -1.000000 0.000000 0.000000
vn -1.000000 0.000000 0.000000
vn 0.999230 -0.023058 0.031737
vn 0.999230 -0.023058 0.031737
vn 0.999230 -0.023058 0.031737
vn 0.999230 0.037309 -0.012122
vn 0.999230 0.037309 -0.012122
vn 0.999230 0.037309 -0.012122
vn 0.999230 0.000000 0.039229
vn 0.999230 0.000000 0.039229
vn 0.999230 0.000000 0.039229
vn 0.999230 0.037309 0.012122
vn 0.999230 0.037309 0.012122
vn 0.999230 0.037309 0.012122
vn 0.999230 0.023058 0.031737
vn 0.999230 0.023058 0.031737
vn 0.999230 0.023058 0.031737
vn -1.000000 0.000000 0.000000
vn -1.000000 0.000000 0.000000
vn 0.538442 -0.801420 -0.260398
vn 0.538442 -0.801420 -0.260398
vn 0.538442 -0.801420 -0.260398
vn 0.538442 -0.801420 -0.260398
vn 0.899242 -0.257128 -0.353905
vn 0.899242 -0.257128 -0.353905
vn 0.899242 -0.257127 -0.353905
vn 0.899242 -0.257128 -0.353905
vn 0.899242 -0.416040 -0.135179
vn 0.899243 -0.416040 -0.135179
vn 0.899243 -0.416040 -0.135179
vn 0.899243 -0.416040 -0.135179
vn -1.000000 0.000000 0.000000
vn -0.000000 0.000000 0.000000
vn -1.000000 0.000000 0.000000
vn -0.000000 0.000000 0.000000
vn -1.000000 0.000000 0.000000
vn 0.970627 -0.141414 -0.194640
vn 0.970627 -0.141414 -0.194640
vn 0.970627 -0.141414 -0.194640
vn 0.970627 -0.141414 -0.194640
vn 0.899242 -0.000000 -0.437452
vn 0.899242 -0.000000 -0.437452
vn 0.899242 -0.000000 -0.437452
vn 0.899242 -0.000000 -0.437452
vn 0.970627 -0.228813 -0.074345
vn 0.970627 -0.228813 -0.074345
vn 0.970627 -0.228813 -0.074345
vn 0.970627 -0.228813 -0.074345
vn -1.000000 0.000000 0.000000
vn 0.538449 -0.801415 0.260396
vn 0.538449 -0.801415 0.260396
vn 0.538449 -0.801415 0.260396
vn 0.538449 -0.801415 0.260396
vn 0.970628 0.000000 -0.240587
vn 0.970628 0.000000 -0.240587
vn 0.970628 0.000000 -0.240587
vn 0.970628 0.000000 -0.240587
vn 0.899243 -0.416040 0.135180
vn 0.899242 -0.416040 0.135180
vn 0.899242 -0.416040 0.135180
vn 0.899243 -0.416040 0.135180
vn 0.992119 -0.073648 -0.101369
vn 0.992119 -0.073648 -0.101369
vn 0.992119 -0.073648 -0.101369
vn 0.992119 -0.073648 -0.101369
vn 0.992119 -0.119166 -0.038720
vn 0.992119 -0.119166 -0.038720
vn 0.992119 -0.119166 -0.038720
vn 0.992119 -0.119166 -0.038720
vn -0.000000 0.000000 0.000000
vn 0.970627 -0.228813 0.074345
vn 0.970627 -0.228813 0.074345
vn 0.970627 -0.228813 0.074345
vn 0.970627 -0.228813 0.074345
vn 0.992119 0.000000 -0.125299
vn 0.992119 0.000000 -0.125299
vn 0.992119 0.000000 -0.125299
vn 0.992119 0.000000 -0.125299
vn 0.899242 0.257128 -0.353906
vn 0.899242 0.257128 -0.353906
vn 0.899242 0.257128 -0.353906
vn 0.899242 0.257128 -0.353906
vn 0.992119 -0.119167 0.038720
vn 0.992119 -0.119167 0.038720
vn 0.992119 -0.119167 0.038720
vn 0.992119 -0.119167 0.038720
vn 0.970628 0.141414 -0.194639
vn 0.970628 0.141414 -0.194639
vn 0.970628 0.141414 -0.194639
vn 0.970628 0.141414 -0.194639
vn 0.992119 0.073649 -0.101369
vn 0.992119 0.073649 -0.101369
vn 0.992119 0.073649 -0.101369
vn 0.992119 0.073649 -0.101369
vn 0.899242 -0.257127 0.353907
vn 0.899242 -0.257127 0.353907
vn 0.899242 -0.257127 0.353907
vn 0.899242 -0.257127 0.353907
vn 0.992119 -0.073649 0.101369
vn 0.992119 -0.073649 0.101369
vn 0.992119 -0.073649 0.101369
vn 0.992119 -0.073649 0.101369
vn 0.970627 -0.141414 0.194639
vn 0.970627 -0.141414 0.194639
vn 0.970627 -0.141414 0.194639
vn 0.970627 -0.141414 0.194639
vn -1.000000 0.000000 0.000000
vn 0.992119 0.119167 -0.038720
vn 0.992119 0.119167 -0.038720
vn 0.992119 0.119167 -0.038720
vn 0.992119 0.119167 -0.038720
vn 0.970628 0.228812 -0.074345
vn 0.970628 0.228812 -0.074345
vn 0.970628 0.228812 -0.074345
vn 0.970628 0.228812 -0.074345
vn 0.992119 0.000000 0.125299
vn 0.992119 0.000000 0.125299
vn 0.992119 0.000000 0.125299
vn 0.992119 0.000000 0.125299
vn 0.899241 0.416042 -0.135180
vn 0.899241 0.416042 -0.135180
vn 0.899241 0.416042 -0.135180
vn 0.899241 0.416042 -0.135180
vn 0.538463 0.801407 -0.260393
vn 0.538463 0.801407 -0.260393
vn 0.538463 0.801407 -0.260393
vn 0.538463 0.801407 -0.260393
vn -0.000000 0.000000 0.000000
vn -1.000000 0.000000 0.000000
vn 0.992119 0.119167 0.038720
vn 0.992119 0.119167 0.038720
vn 0.992119 0.119167 0.038720
vn 0.992119 0.119167 0.038720
vn 0.992119 0.073649 0.101369
vn 0.992119 0.073649 0.101369
vn 0.992119 0.073649 0.101369
vn 0.992119 0.073649 0.101369
vn 0.970627 0.000000 0.240587
vn 0.970627 0.000000 0.240587
vn 0.970628 0.000000 0.240587
vn 0.970628 0.000000 0.240587
vn 0.899242 0.000000 0.437453
vn 0.899242 0.000000 0.437453
vn 0.899241 0.000000 0.437453
vn 0.899241 0.000000 0.437453
vn 0.970628 0.228812 0.074346
vn 0.970628 0.228812 0.074346
vn 0.970628 0.228812 0.074346
vn 0.970628 0.228812 0.074346
vn 0.970628 0.141414 0.194639
vn 0.970628 0.141414 0.194639
vn 0.970628 0.141414 0.194639
vn 0.970628 0.141414 0.194639
vn 0.899242 0.416042 0.135180
vn 0.899242 0.416042 0.135180
vn 0.899242 0.416042 0.135180
vn 0.899242 0.416042 0.135180
vn 0.899242 0.257127 0.353906
vn 0.899242 0.257127 0.353906
vn 0.899242 0.257128 0.353906
vn 0.899242 0.257127 0.353906
vn 0.538434 0.495310 0.681731
vn 0.538434 0.495310 0.681731
vn 0.538434 0.495310 0.681731
vn 0.538434 0.495310 0.681731
vn 0.538448 -0.495304 -0.681724
vn 0.538448 -0.495304 -0.681724
vn 0.000000 -0.000000 -0.000000
vn 0.000000 -0.000000 -0.000000
vn 0.538448 -0.495304 -0.681724
vn 0.538451 -0.000000 -0.842657
vn 0.538451 -0.000000 -0.842657
vn 0.000000 -0.000000 -0.000000
vn 0.000000 -0.000000 -0.000000
vn 0.538451 -0.000000 -0.842657
vn 0.538467 0.000000 0.842646
vn 0.538467 0.000000 0.842646
vn 0.000000 0.000000 0.000000
vn 0.000000 0.000000 0.000000
vn 0.538467 0.000000 0.842646
vn -0.000000 0.000000 0.000000
vn -0.000000 0.000000 0.000000
vn 0.538445 0.801418 0.260396
vn 0.538445 0.801418 0.260396
vn 0.538445 0.801418 0.260396
vn 0.000000 0.000000 0.000000
vn 0.000000 0.000000 0.000000
vn 0.538426 0.495311 -0.681736
vn 0.538426 0.495311 -0.681736
vn 0.538426 0.495311 -0.681736
vn 0.538426 0.495311 -0.681736
vn 0.538426 0.495311 -0.681736
vn 0.538426 0.495311 -0.681736
vn 0.538479 -0.495292 0.681708
vn 0.538479 -0.495292 0.681708
vn 0.000000 -0.000000 0.000000
vn 0.000000 -0.000000 0.000000
vn 0.000000 -0.000000 0.000000
vn 0.000000 -0.000000 0.000000
s 1
g Red
usemtl initialShadingGroup
f 1/1/1 2/2/2 3/3/3
s off
f 4/20/4 5/21/5 6/22/6
f 7/26/7 4/20/8 6/22/9
f 5/21/10 8/25/11 6/22/12
f 9/32/13 7/26/14 6/22/15
f 8/25/16 10/31/17 6/22/18
s 1
f 11/17/19 12/18/20 3/3/3
s off
f 13/40/21 9/32/22 6/22/23
f 10/31/24 14/39/25 6/22/26
f 15/51/27 13/40/28 6/22/29
f 14/39/30 16/50/31 6/22/32
f 16/50/33 15/51/34 6/22/35
s 1
f 17/10/36 18/6/37 3/3/3
s off
f 19/44/38 20/35/39 21/43/40 22/55/41
f 23/29/42 24/28/43 20/35/44 25/36/45
f 24/28/46 26/34/47 21/43/48 20/35/49
s 1
f 27/5/50 28/8/51 29/9/52 3/3/3
f 29/9/52 19/11/53 22/12/54 3/3/3
s off
f 30/24/55 31/23/56 24/28/57 23/29/58
f 32/37/59 23/29/60 25/36/61 33/47/62
f 31/23/63 34/27/64 26/34/65 24/28/66
s 1
f 2/2/2 35/4/67 27/5/50 3/3/3
s off
f 22/55/68 21/43/69 36/54/70 37/63/71
f 38/30/72 30/24/73 23/29/74 32/37/75
f 26/34/76 39/42/77 36/54/78 21/43/79
f 5/21/80 4/20/81 31/23/82 30/24/83
f 4/20/84 7/26/85 34/27/86 31/23/87
s 1
f 22/12/54 37/16/88 11/17/19 3/3/3
s off
f 34/27/89 40/33/90 39/42/91 26/34/92
f 8/25/93 5/21/94 30/24/95 38/30/96
f 41/48/97 32/37/98 33/47/99 42/58/100
f 7/26/101 9/32/102 40/33/103 34/27/104
f 43/38/105 38/30/106 32/37/107 41/48/108
f 10/31/109 8/25/110 38/30/111 43/38/112
f 39/42/113 44/53/114 45/62/115 36/54/116
f 9/32/117 13/40/118 46/41/119 40/33/120
f 40/33/121 46/41/122 44/53/123 39/42/124
s 1
f 18/6/37 47/7/125 1/1/1 3/3/3
s off
f 14/39/126 10/31/127 43/38/128 48/49/129
f 48/49/130 43/38/131 41/48/132 49/59/133
f 13/40/134 15/51/135 50/52/136 46/41/137
f 49/59/138 41/48/139 42/58/140 51/67/141
f 18/73/142 51/67/143 42/58/144 47/66/145
s 1
f 12/18/20 52/19/146 53/13/147 3/3/3
s off
f 16/50/148 14/39/149 48/49/150 54/60/151
f 15/51/152 16/50/153 54/60/154 50/52/155
f 46/41/156 50/52/157 55/61/158 44/53/159
f 44/53/160 55/61/161 56/69/162 45/62/163
f 54/60/164 48/49/165 49/59/166 57/68/167
f 50/52/168 54/60/169 57/68/170 55/61/171
f 57/68/172 49/59/173 51/67/174 58/74/175
f 55/61/176 57/68/177 58/74/178 56/69/179
f 59/75/180 56/69/181 58/74/182 60/78/183
f 25/36/184 20/35/185 19/44/186 29/45/187 28/46/188
f 33/47/189 25/36/190 28/46/191 27/56/192 35/57/193
f 45/62/194 56/69/195 59/75/196 53/76/197 52/70/198
s 1
f 53/13/147 59/14/199 60/15/200 17/10/36 3/3/3
s off
f 58/74/201 51/67/202 18/73/203 17/77/204 60/78/205
f 42/58/206 33/47/207 35/57/208 2/64/209 1/65/210 47/66/211
f 36/54/212 45/62/213 52/70/214 12/71/215 11/72/216 37/63/217
